<svg width="64" height="64" viewBox="0 0 16 16" fill="none" xmlns="http://www.w3.org/2000/svg">
  <!-- Tracks -->
  <rect x="0" y="0" width="3" height="16" fill="#2D3436" />
  <rect x="13" y="0" width="3" height="16" fill="#2D3436" />
  
  <!-- Hull -->
  <rect x="3" y="2" width="10" height="12" fill="#4B5320" />
  
  <!-- Turret -->
  <rect x="5" y="5" width="6" height="6" fill="#556B2F" />
  
  <!-- Barrel -->
  <rect x="7" y="0" width="2" height="6" fill="#556B2F" />
  
  <!-- Track Details (Pixels) -->
  <rect x="1" y="1" width="1" height="1" fill="#636E72" />
  <rect x="1" y="4" width="1" height="1" fill="#636E72" />
  <rect x="1" y="7" width="1" height="1" fill="#636E72" />
  <rect x="1" y="10" width="1" height="1" fill="#636E72" />
  <rect x="1" y="13" width="1" height="1" fill="#636E72" />
  
  <rect x="14" y="1" width="1" height="1" fill="#636E72" />
  <rect x="14" y="4" width="1" height="1" fill="#636E72" />
  <rect x="14" y="7" width="1" height="1" fill="#636E72" />
  <rect x="14" y="10" width="1" height="1" fill="#636E72" />
  <rect x="14" y="13" width="1" height="1" fill="#636E72" />
</svg>